# xmcd CD database file
#
# Track frame offsets:
#	150
#	54824
#	134994
#	186668
#	266540
#
# Disc length: 3769 seconds
#
# Revision: 0
# Processed by: cddbd v1.5.2PL0 Copyright (c) Steve Scherf et al.
# Submitted via: CDex 1.51
#
DISCID=4c0eb705
DTITLE=Dr. Frank Kinslow - Quantenheilung Alltag 1 CD2
DYEAR=2010
DGENRE=New Age
TTITLE0=QE am Arbeitsplatz
TTITLE1=Negative Gefühle heilen
TTITLE2=Heilung körperlicher Beschwerden
TTITLE3=Raum-Gehen
TTITLE4=11 Nachwort
EXTD=YEAR: 2010
EXTT0=
EXTT1=
EXTT2=
EXTT3=
EXTT4=
PLAYORDER=
